<?xml version="1.0" encoding="UTF-8" standalone="no"?>
<!-- Created with Inkscape (http://www.inkscape.org/) -->
<svg id="svg7963" xmlns:rdf="http://www.w3.org/1999/02/22-rdf-syntax-ns#" xmlns="http://www.w3.org/2000/svg" height="1270" width="870" version="1.1" xmlns:cc="http://creativecommons.org/ns#" xmlns:dc="http://purl.org/dc/elements/1.1/" viewBox="0 0 870.00001 1270">
 <defs id="defs7965">
  <marker id="Arrow1Lend" refY="0.0" refX="0.0" orient="auto" overflow="visible">
   <path id="path8939" d="m0 0l5-5-17.5 5 17.5 5-5-5z" fill-rule="evenodd" transform="scale(.8) rotate(180) translate(12.5)" stroke="#00f" stroke-width="1pt" fill="#00f"/>
  </marker>
 </defs>
 <metadata id="metadata7968">
  <rdf:RDF>
   <cc:Work rdf:about="">
    <dc:format>image/svg+xml</dc:format>
    <dc:type rdf:resource="http://purl.org/dc/dcmitype/StillImage"/>
    <dc:title/>
   </cc:Work>
  </rdf:RDF>
 </metadata>
 <g id="layer32">
  <g stroke-linejoin="round" fill="none">
   <path id="circle8930" marker-end="url(#Arrow1Lend)" marker-start="url(#Arrow1Lend)" marker-mid="url(#Arrow1Lend)" stroke="#00f" stroke-linecap="round" stroke-dasharray="6, 6" stroke-width="2" d="m828.82 197.11a150 150 0 0 1 111.18 144.89 150 150 0 0 1 -111.18 144.89 150 150 0 0 1 -168.72 -69.89 150 150 0 0 1 23.83 -181.07"/>
   <path id="path8705" d="m410 420-377.38 134.39 213.74-515.25z" stroke="#f00" stroke-width="10"/>
   <path id="path8590" d="m410 420-399.71-25.7 399.71-389.3z" stroke-opacity=".4" stroke="#f00" stroke-width="10"/>
  </g>
  <circle id="path8594" fill-rule="evenodd" cx="790" fill-opacity=".26667" cy="342" r="150" fill="#08f"/>
  <g fill="none">
   <g stroke-width="10">
    <g stroke-opacity=".4">
     <path id="path8596" d="m864.59 212-454.59-207" stroke="#080" stroke-linecap="round"/>
     <path id="path8600" d="m593.13 767.45 271.46-555.45" stroke="#f80" stroke-linecap="round"/>
     <path id="path8602" stroke-linejoin="round" d="m229.39 721.38 363.74 46.07 15.463 489.45z" stroke="#0080ff"/>
    </g>
    <g stroke-linecap="round">
     <g stroke-opacity=".4">
      <path id="path8604" d="m410 420 183.13 347.45" stroke="#880"/>
      <path id="path8606" d="m10.287 394.3 219.1 327.08" stroke="#80f"/>
      <path id="path8598" d="m790 342 74.59-130" stroke="#00f"/>
     </g>
     <path id="path8703" d="m714.72 212.4-468.36-173.26" stroke="#080"/>
     <path id="path8709" d="m410 420 106.56 378.2" stroke="#880"/>
    </g>
    <path id="path8711" stroke-linejoin="round" d="m171.73 922.83 344.83-124.63 237.33 428.1z" stroke="#0080ff"/>
    <path id="path8713" d="m516.56 798.2 198.16-585.8" stroke="#f80" stroke-linecap="round"/>
   </g>
   <g>
    <path id="path8771" d="m410 420h380v-78" stroke="#000" stroke-dasharray="6, 6" stroke-width="2"/>
    <path id="path8707" d="m32.625 554.39 139.1 368.44" stroke="#80f" stroke-linecap="round" stroke-width="10"/>
    <path id="path8701" d="m790 342-75.28-129.6" stroke="#00f" stroke-linecap="round" stroke-width="10"/>
   </g>
  </g>
  <circle id="path12885" stroke-linejoin="round" stroke-opacity=".53333" fill-rule="evenodd" cx="410" stroke-linecap="round" stroke="#fff" cy="420" r="10" stroke-width="5"/>
  <circle id="circle12887" stroke-linejoin="round" stroke-width="5" stroke-opacity=".53333" fill-rule="evenodd" stroke-linecap="round" stroke="#fff" cy="342" cx="790" r="10"/>
 </g>
 <g id="layer34" font-size="45px" font-family="&apos;Bitstream Vera Sans&apos;">
  <text id="text8842" style="word-spacing:0px;letter-spacing:-1px;text-anchor:middle;text-align:center" line-height="89.99999762%" y="390" x="170.5" xml:space="preserve" fill="#ff0000"><tspan id="tspan8844" y="390" x="170">55.8</tspan></text>
  <text id="text8826" style="word-spacing:0px;letter-spacing:-1px;text-anchor:middle;text-align:center" line-height="89.99999762%" y="320" x="300.5" xml:space="preserve" fill="#ff0000"><tspan id="tspan8828" y="320" x="300">41.5</tspan></text>
  <text id="text8862" style="word-spacing:0px;letter-spacing:-1px;text-anchor:middle;text-align:center" line-height="89.99999762%" y="200" x="510.5" xml:space="preserve" fill="#008800"><tspan id="tspan8864" y="200" x="510">50.0</tspan></text>
  <text id="text8874" style="word-spacing:0px;letter-spacing:-1px;text-anchor:middle;text-align:center" line-height="89.99999762%" y="250" x="790.5" xml:space="preserve" fill="#0000ff"><tspan id="tspan8876" y="250" x="790">15.0</tspan></text>
  <text id="text8870" style="word-spacing:0px;letter-spacing:-1px;text-anchor:middle;text-align:center" line-height="89.99999762%" y="400" x="830.5" xml:space="preserve" fill="#000000"><tspan id="tspan8872" y="400" x="830">7.8</tspan></text>
  <text id="text8830" style="word-spacing:0px;letter-spacing:-1px;text-anchor:middle;text-align:center" line-height="89.99999762%" y="410" x="580.5" xml:space="preserve" fill="#000000"><tspan id="tspan8832" y="410" x="580">38.0</tspan></text>
  <text id="text8866" style="word-spacing:0px;letter-spacing:-1px;text-anchor:middle;text-align:center" line-height="89.99999762%" y="540" x="550.5" xml:space="preserve" fill="#ff8800"><tspan id="tspan8868" y="540" x="550">61.9</tspan></text>
  <text id="text8834" style="word-spacing:0px;letter-spacing:-1px;text-anchor:middle;text-align:center" line-height="89.99999762%" y="640" x="410.5" xml:space="preserve" fill="#888800"><tspan id="tspan8836" y="640" x="410">39.3</tspan></text>
  <text id="text8838" style="word-spacing:0px;letter-spacing:-1px;text-anchor:middle;text-align:center" line-height="89.99999762%" y="530" x="260.5" xml:space="preserve" fill="#ff0000"><tspan id="tspan8840" y="530" x="260">40.1</tspan></text>
  <text id="text8846" style="word-spacing:0px;letter-spacing:-1px;text-anchor:middle;text-align:center" line-height="89.99999762%" y="800" x="50.5" xml:space="preserve" fill="#8800ff"><tspan id="tspan8848" y="800" x="50">39.4</tspan></text>
  <g fill="#0080ff">
   <text id="text8850" style="word-spacing:0px;letter-spacing:-1px;text-anchor:middle;text-align:center" line-height="89.99999762%" y="900" x="410.5" xml:space="preserve"><tspan id="tspan8852" y="900" x="410">36.7</tspan></text>
   <text id="text8854" style="word-spacing:0px;letter-spacing:-1px;text-anchor:middle;text-align:center" line-height="89.99999762%" y="1090" x="360.5" xml:space="preserve"><tspan id="tspan8856" y="1090" x="360">65.7</tspan></text>
   <text id="text8858" style="word-spacing:0px;letter-spacing:-1px;text-anchor:middle;text-align:center" line-height="89.99999762%" y="1000" x="680.5" xml:space="preserve"><tspan id="tspan8860" y="1000" x="680">49.0</tspan></text>
  </g>
 </g>
</svg>
